<svg width="214" height="81" viewBox="0 0 214 81" fill="none" xmlns="http://www.w3.org/2000/svg">
<path d="M88.272 32.488V47.104H94.296L94.056 49H86.04V32.488H88.272ZM101.638 36.064C103.254 36.064 104.51 36.632 105.406 37.768C106.302 38.904 106.75 40.536 106.75 42.664C106.75 44.712 106.294 46.336 105.382 47.536C104.47 48.72 103.214 49.312 101.614 49.312C99.9976 49.312 98.7336 48.728 97.8216 47.56C96.9256 46.392 96.4776 44.768 96.4776 42.688C96.4776 40.592 96.9336 38.968 97.8456 37.816C98.7576 36.648 100.022 36.064 101.638 36.064ZM101.638 37.792C100.694 37.792 99.9736 38.192 99.4776 38.992C98.9816 39.776 98.7336 41.008 98.7336 42.688C98.7336 45.968 99.6936 47.608 101.614 47.608C103.534 47.608 104.494 45.96 104.494 42.664C104.494 40.984 104.254 39.752 103.774 38.968C103.294 38.184 102.582 37.792 101.638 37.792ZM120.342 36.832C119.654 37.104 118.59 37.24 117.15 37.24C118.494 37.912 119.166 39.016 119.166 40.552C119.166 41.816 118.766 42.84 117.966 43.624C117.182 44.392 116.11 44.776 114.75 44.776C114.238 44.776 113.774 44.696 113.358 44.536C112.91 44.856 112.686 45.264 112.686 45.76C112.686 46.512 113.214 46.888 114.27 46.888H115.926C117.174 46.888 118.166 47.208 118.902 47.848C119.638 48.472 120.006 49.272 120.006 50.248C120.006 51.432 119.55 52.36 118.638 53.032C117.726 53.72 116.39 54.064 114.63 54.064C112.806 54.064 111.51 53.752 110.742 53.128C109.99 52.504 109.614 51.552 109.614 50.272H111.558C111.558 50.8 111.646 51.216 111.822 51.52C112.014 51.84 112.326 52.072 112.758 52.216C113.206 52.376 113.838 52.456 114.654 52.456C115.79 52.456 116.606 52.28 117.102 51.928C117.598 51.576 117.846 51.072 117.846 50.416C117.846 49.808 117.638 49.344 117.222 49.024C116.822 48.704 116.246 48.544 115.494 48.544H114.078C112.974 48.544 112.15 48.336 111.606 47.92C111.062 47.488 110.79 46.92 110.79 46.216C110.79 45.4 111.23 44.672 112.11 44.032C111.438 43.648 110.934 43.168 110.598 42.592C110.278 42 110.118 41.288 110.118 40.456C110.118 39.144 110.534 38.088 111.366 37.288C112.198 36.488 113.294 36.088 114.654 36.088C115.918 36.088 116.894 36 117.582 35.824C118.286 35.648 119.006 35.376 119.742 35.008L120.342 36.832ZM114.678 37.6C113.894 37.6 113.294 37.848 112.878 38.344C112.478 38.824 112.278 39.528 112.278 40.456C112.278 41.352 112.486 42.056 112.902 42.568C113.334 43.064 113.926 43.312 114.678 43.312C116.262 43.312 117.054 42.352 117.054 40.432C117.054 39.504 116.854 38.8 116.454 38.32C116.054 37.84 115.462 37.6 114.678 37.6ZM127.569 36.064C129.185 36.064 130.441 36.632 131.337 37.768C132.233 38.904 132.681 40.536 132.681 42.664C132.681 44.712 132.225 46.336 131.313 47.536C130.401 48.72 129.145 49.312 127.545 49.312C125.929 49.312 124.665 48.728 123.753 47.56C122.857 46.392 122.409 44.768 122.409 42.688C122.409 40.592 122.865 38.968 123.777 37.816C124.689 36.648 125.953 36.064 127.569 36.064ZM127.569 37.792C126.625 37.792 125.905 38.192 125.409 38.992C124.913 39.776 124.665 41.008 124.665 42.688C124.665 45.968 125.625 47.608 127.545 47.608C129.465 47.608 130.425 45.96 130.425 42.664C130.425 40.984 130.185 39.752 129.705 38.968C129.225 38.184 128.513 37.792 127.569 37.792ZM142.434 36.064C143.762 36.064 144.786 36.632 145.506 37.768C146.242 38.888 146.61 40.52 146.61 42.664C146.61 44.712 146.21 46.336 145.41 47.536C144.626 48.72 143.554 49.312 142.194 49.312C141.554 49.312 140.97 49.168 140.442 48.88C139.914 48.576 139.458 48.152 139.074 47.608L138.93 49H137.01V31.288L139.17 31.048V37.912C139.57 37.336 140.042 36.888 140.586 36.568C141.146 36.232 141.762 36.064 142.434 36.064ZM141.69 47.608C143.466 47.608 144.354 45.96 144.354 42.664C144.354 40.888 144.138 39.632 143.706 38.896C143.274 38.144 142.658 37.768 141.858 37.768C141.298 37.768 140.802 37.936 140.37 38.272C139.954 38.608 139.554 39.08 139.17 39.688V45.952C139.474 46.448 139.842 46.848 140.274 47.152C140.706 47.456 141.178 47.608 141.69 47.608ZM156.167 36.088C156.583 36.088 156.943 36.136 157.247 36.232L156.887 38.32C156.583 38.224 156.255 38.176 155.903 38.176C155.199 38.176 154.623 38.456 154.175 39.016C153.743 39.576 153.399 40.432 153.143 41.584V49H150.983V36.376H152.855L153.023 38.872C153.647 37.016 154.695 36.088 156.167 36.088ZM167.672 46.12C167.672 46.632 167.744 47.016 167.888 47.272C168.032 47.512 168.256 47.696 168.56 47.824L168.104 49.288C167.48 49.192 166.992 49 166.64 48.712C166.288 48.424 166.04 47.984 165.896 47.392C165.08 48.672 163.936 49.312 162.464 49.312C161.344 49.312 160.456 48.968 159.8 48.28C159.144 47.576 158.816 46.64 158.816 45.472C158.816 44.128 159.256 43.104 160.136 42.4C161.016 41.696 162.272 41.344 163.904 41.344H165.536V40.264C165.536 39.384 165.352 38.752 164.984 38.368C164.632 37.968 164.048 37.768 163.232 37.768C162.352 37.768 161.328 37.992 160.16 38.44L159.632 36.928C161.04 36.352 162.352 36.064 163.568 36.064C166.304 36.064 167.672 37.432 167.672 40.168V46.12ZM162.968 47.68C164.088 47.68 164.944 47.024 165.536 45.712V42.736H164.144C162.064 42.736 161.024 43.608 161.024 45.352C161.024 46.104 161.192 46.68 161.528 47.08C161.864 47.48 162.344 47.68 162.968 47.68ZM178.406 36.064C179.414 36.064 180.198 36.4 180.758 37.072C181.334 37.728 181.622 38.64 181.622 39.808V49H179.462V40.072C179.462 39.256 179.326 38.672 179.054 38.32C178.782 37.952 178.366 37.768 177.806 37.768C176.75 37.768 175.79 38.52 174.926 40.024V49H172.766V36.376H174.638L174.806 38.248C175.782 36.792 176.982 36.064 178.406 36.064ZM195.598 31.264V49H193.678L193.534 47.344C192.718 48.656 191.622 49.312 190.246 49.312C188.87 49.312 187.798 48.728 187.03 47.56C186.278 46.392 185.902 44.784 185.902 42.736C185.902 41.408 186.086 40.24 186.454 39.232C186.838 38.224 187.374 37.448 188.062 36.904C188.75 36.344 189.542 36.064 190.438 36.064C191.638 36.064 192.638 36.568 193.438 37.576V31.024L195.598 31.264ZM190.75 47.608C191.326 47.608 191.822 47.448 192.238 47.128C192.67 46.808 193.07 46.336 193.438 45.712V39.376C192.718 38.304 191.878 37.768 190.918 37.768C190.07 37.768 189.398 38.176 188.902 38.992C188.406 39.808 188.166 41.04 188.182 42.688C188.182 44.368 188.406 45.608 188.854 46.408C189.302 47.208 189.934 47.608 190.75 47.608Z" fill="#575757"/>
<path fill-rule="evenodd" clip-rule="evenodd" d="M48.25 57H64L47.875 24L40 40.1163L48.25 57Z" fill="#1976D2"/>
<path d="M31.75 56.9999H48.25L40 40.1162L31.75 56.9999Z" fill="#1E88E5"/>
<path fill-rule="evenodd" clip-rule="evenodd" d="M16 57H31.75L40 40.1163L32.125 24L16 57Z" fill="#2196F3"/>
</svg>
