<?xml version="1.0" encoding="UTF-8" standalone="no"?>
<!-- Created with Inkscape (http://www.inkscape.org/) -->

<svg
   version="1.1"
   id="svg1"
   width="48.267517"
   height="48.132721"
   viewBox="0 0 48.267517 48.13272"
   sodipodi:docname="MYLOGOS.svg"
   inkscape:version="1.3 (0e150ed6c4, 2023-07-21)"
   xmlns:inkscape="http://www.inkscape.org/namespaces/inkscape"
   xmlns:sodipodi="http://sodipodi.sourceforge.net/DTD/sodipodi-0.dtd"
   xmlns="http://www.w3.org/2000/svg"
   xmlns:svg="http://www.w3.org/2000/svg">
  <defs
     id="defs1" />
  <sodipodi:namedview
     id="namedview1"
     pagecolor="#ffffff"
     bordercolor="#000000"
     borderopacity="0.25"
     inkscape:showpageshadow="2"
     inkscape:pageopacity="0.0"
     inkscape:pagecheckerboard="0"
     inkscape:deskcolor="#d1d1d1"
     inkscape:zoom="0.96810528"
     inkscape:cx="328.99315"
     inkscape:cy="250.48929"
     inkscape:window-width="1920"
     inkscape:window-height="1009"
     inkscape:window-x="-8"
     inkscape:window-y="-8"
     inkscape:window-maximized="1"
     inkscape:current-layer="layer-MC0"
     showguides="true">
    <sodipodi:guide
       position="-116.89383,309.42135"
       orientation="1,0"
       id="guide462"
       inkscape:locked="false" />
    <sodipodi:guide
       position="55.742749,420.38331"
       orientation="0,-1"
       id="guide464"
       inkscape:locked="false" />
    <sodipodi:guide
       position="105.0185,383.72331"
       orientation="0,-1"
       id="guide465"
       inkscape:locked="false" />
    <sodipodi:guide
       position="93.139619,428.11665"
       orientation="1,0"
       id="guide466"
       inkscape:locked="false" />
    <sodipodi:guide
       position="96.142749,428.11665"
       orientation="0,-1"
       id="guide467"
       inkscape:locked="false" />
  </sodipodi:namedview>
  <g
     id="layer-MC0"
     inkscape:groupmode="layer"
     inkscape:label="Layer 1"
     transform="translate(-534.50391,-331.53907)">
    <g
       id="g208"
       inkscape:export-filename="g208.svg"
       inkscape:export-xdpi="96"
       inkscape:export-ydpi="96">
      <path
         d="m 540.9043,339.13867 c -0.25,0.26667 -0.49512,0.53949 -0.73243,0.81836 -0.2373,0.27887 -0.46718,0.56302 -0.6914,0.85352 -0.22422,0.29049 -0.4416,0.58714 -0.65235,0.88867 -0.21074,0.30153 -0.41445,0.60794 -0.61132,0.91992 -0.19688,0.31198 -0.3877,0.62933 -0.57032,0.95117 -0.18261,0.32184 -0.35742,0.64935 -0.52539,0.98047 -0.16796,0.33112 -0.32949,0.66605 -0.48242,1.00586 -0.15293,0.33981 -0.29805,0.68333 -0.43555,1.03125 -0.13749,0.34792 -0.26699,0.70121 -0.38867,1.05664 -0.12168,0.35544 -0.23437,0.7138 -0.33984,1.07617 -0.10547,0.36237 -0.2041,0.72894 -0.29297,1.09766 -0.0889,0.36872 -0.16836,0.7388 -0.24023,1.11328 -0.0719,0.37448 -0.13496,0.75316 -0.18946,1.13281 -0.0545,0.37966 -0.1,0.76029 -0.13672,1.14453 -0.0367,0.38425 -0.0654,0.77191 -0.084,1.16016 -0.0186,0.38825 -0.0273,0.77826 -0.0273,1.16992 0,0.41667 0.0104,0.83072 0.0312,1.24219 0.0208,0.41147 0.0526,0.8208 0.0937,1.22656 0.0412,0.40576 0.0913,0.80748 0.15234,1.20703 0.061,0.39956 0.13255,0.79662 0.21289,1.18946 0.0803,0.39284 0.17037,0.78235 0.26953,1.16797 0.0992,0.38562 0.20674,0.76663 0.32422,1.14453 0.11748,0.37789 0.24361,0.75142 0.37891,1.12109 0.13529,0.36967 0.28099,0.73477 0.43359,1.0957 0.1526,0.36094 0.31301,0.71862 0.48242,1.07032 0.16941,0.3517 0.3475,0.69905 0.53321,1.04101 0.18571,0.34196 0.37857,0.67805 0.58007,1.00977 0.20151,0.33171 0.41211,0.65755 0.62891,0.97851 0.2168,0.32097 0.44029,0.63756 0.67187,0.94727 0.23159,0.30971 0.47094,0.61416 0.7168,0.91211 0.24587,0.29795 0.49817,0.58931 0.75781,0.875 0.25965,0.28568 0.52592,0.56497 0.79883,0.83789 0.27292,0.27292 0.55221,0.53918 0.83789,0.79883 0.28569,0.25964 0.57705,0.51194 0.875,0.75781 0.29795,0.24587 0.6024,0.48521 0.91211,0.7168 0.30971,0.23158 0.6263,0.45507 0.94727,0.67187 0.32096,0.2168 0.6468,0.4274 0.97851,0.62891 0.33172,0.2015 0.66781,0.39437 1.00977,0.58008 0.34196,0.18571 0.68931,0.36379 1.04101,0.5332 0.35171,0.16941 0.70938,0.32982 1.07032,0.48242 0.36093,0.1526 0.72603,0.2983 1.0957,0.43359 0.36967,0.1353 0.7432,0.26143 1.12109,0.37891 0.3779,0.11748 0.75892,0.22506 1.14454,0.32422 0.38562,0.0992 0.77513,0.18919 1.16796,0.26953 0.39284,0.0803 0.78991,0.15188 1.18946,0.21289 0.39955,0.061 0.80127,0.11117 1.20703,0.15234 0.40576,0.0412 0.8151,0.0729 1.22656,0.0937 0.41147,0.0208 0.82552,0.0312 1.24219,0.0312 0.41666,0 0.83072,-0.0104 1.24219,-0.0312 0.41146,-0.0208 0.8208,-0.0526 1.22656,-0.0937 0.40576,-0.0412 0.80943,-0.0913 1.20898,-0.15234 0.39956,-0.061 0.79466,-0.13255 1.1875,-0.21289 0.39284,-0.0803 0.78235,-0.17037 1.16797,-0.26953 0.38562,-0.0992 0.76859,-0.20674 1.14649,-0.32422 0.37789,-0.11748 0.75142,-0.24361 1.12109,-0.37891 0.36967,-0.13529 0.73477,-0.28099 1.0957,-0.43359 0.36094,-0.1526 0.71666,-0.31301 1.06836,-0.48242 0.3517,-0.16941 0.69906,-0.34749 1.04102,-0.5332 0.34196,-0.18571 0.68,-0.37858 1.01172,-0.58008 0.33171,-0.20151 0.65755,-0.41211 0.97851,-0.62891 0.32097,-0.2168 0.63561,-0.44029 0.94531,-0.67187 0.30971,-0.23159 0.61417,-0.47093 0.91211,-0.7168 0.29795,-0.24587 0.58932,-0.49817 0.875,-0.75781 0.28569,-0.25965 0.56498,-0.52591 0.83789,-0.79883 0.27292,-0.27292 0.53919,-0.55221 0.79883,-0.83789 0.25965,-0.28569 0.5139,-0.57705 0.75977,-0.875 0.24586,-0.29795 0.48521,-0.6024 0.7168,-0.91211 0.23158,-0.30971 0.45507,-0.6263 0.67187,-0.94727 0.2168,-0.32096 0.42545,-0.6468 0.62695,-0.97851 0.20151,-0.33172 0.39633,-0.66781 0.58203,-1.00977 0.18571,-0.34196 0.36185,-0.68931 0.53125,-1.04101 0.16941,-0.3517 0.33178,-0.70938 0.48438,-1.07032 0.1526,-0.36093 0.29635,-0.72603 0.43164,-1.0957 0.1353,-0.36967 0.26143,-0.7432 0.37891,-1.12109 0.11748,-0.3779 0.22701,-0.75891 0.32617,-1.14453 0.0992,-0.38562 0.18919,-0.77513 0.26953,-1.16797 0.0803,-0.39284 0.14993,-0.7899 0.21094,-1.18946 0.061,-0.39955 0.11312,-0.80127 0.15429,-1.20703 0.0412,-0.40576 0.071,-0.81509 0.0918,-1.22656 0.0208,-0.41147 0.0332,-0.82552 0.0332,-1.24219 0,-0.38333 -0.0108,-0.76458 -0.0293,-1.14453 -0.0185,-0.37995 -0.0455,-0.75872 -0.082,-1.13476 -0.0366,-0.37605 -0.0825,-0.74948 -0.13672,-1.1211 -0.0542,-0.37161 -0.11615,-0.74075 -0.1875,-1.10742 -0.0714,-0.36667 -0.15218,-0.73255 -0.24024,-1.09375 -0.088,-0.3612 -0.18476,-0.71901 -0.28906,-1.07422 -0.1043,-0.35521 -0.21585,-0.70599 -0.33594,-1.05469 -0.12008,-0.34869 -0.24739,-0.69544 -0.38281,-1.03711 -0.13542,-0.34166 -0.27939,-0.67955 -0.42969,-1.01367 -0.15029,-0.33411 -0.30794,-0.66419 -0.47265,-0.99023 -0.16472,-0.32604 -0.33695,-0.6474 -0.51563,-0.96485 -0.17868,-0.31744 -0.3625,-0.63112 -0.55469,-0.93945 -0.19218,-0.30833 -0.39241,-0.61146 -0.59765,-0.91016 -0.20524,-0.29869 -0.41693,-0.59231 -0.63477,-0.88085 -0.21784,-0.28855 -0.44189,-0.57175 -0.67187,-0.84961 -0.22998,-0.27787 -0.46537,-0.54974 -0.70703,-0.81641 l -4.9336,4.93164 c 0.33334,0.38333 0.65026,0.77969 0.94922,1.1875 0.29896,0.40781 0.5793,0.82852 0.8418,1.25977 0.2625,0.43125 0.50651,0.87252 0.73047,1.32617 0.11198,0.22682 0.22031,0.45722 0.32226,0.68945 0.10196,0.23223 0.1974,0.46758 0.28906,0.70508 0.0917,0.2375 0.17865,0.47806 0.25977,0.7207 0.0811,0.24265 0.15625,0.48672 0.22656,0.73438 0.0703,0.24765 0.13607,0.49746 0.19532,0.75 0.0592,0.25254 0.11224,0.50833 0.16015,0.76562 0.0479,0.25729 0.0906,0.51739 0.12695,0.7793 0.0363,0.26191 0.0673,0.52461 0.0918,0.79101 0.0245,0.26641 0.0423,0.53588 0.0547,0.80665 0.0124,0.27076 0.0195,0.54336 0.0195,0.81835 0,0.29584 -0.009,0.59055 -0.0234,0.88282 -0.0149,0.29226 -0.0369,0.58276 -0.0664,0.87109 -0.0295,0.28833 -0.0657,0.57339 -0.10938,0.85742 -0.0437,0.28403 -0.0949,0.56634 -0.15234,0.84571 -0.0575,0.27936 -0.12242,0.55575 -0.19336,0.83007 -0.0709,0.27433 -0.14839,0.54748 -0.23242,0.81641 -0.084,0.26893 -0.17473,0.53371 -0.27149,0.79688 -0.0967,0.26316 -0.19948,0.52421 -0.30859,0.78125 -0.10912,0.25703 -0.2246,0.51118 -0.3457,0.76171 -0.12111,0.25054 -0.24813,0.49657 -0.38086,0.74024 -0.13273,0.24367 -0.27008,0.48426 -0.41407,0.7207 -0.14399,0.23644 -0.29433,0.46843 -0.44922,0.69727 -0.15488,0.22884 -0.31505,0.4549 -0.48046,0.67578 -0.16541,0.22088 -0.33615,0.43784 -0.51172,0.65039 -0.17557,0.21255 -0.35565,0.42115 -0.54102,0.625 -0.18536,0.20385 -0.37552,0.40286 -0.57031,0.59766 -0.19479,0.19479 -0.3938,0.38494 -0.59766,0.57031 -0.20385,0.18536 -0.41245,0.36544 -0.625,0.54101 -0.21255,0.17557 -0.42951,0.34631 -0.65039,0.51172 -0.22088,0.16541 -0.44498,0.32559 -0.67383,0.48047 -0.22884,0.15488 -0.46278,0.30523 -0.69921,0.44922 -0.23644,0.14399 -0.47509,0.28133 -0.71875,0.41406 -0.24367,0.13273 -0.49166,0.25976 -0.74219,0.38086 -0.25053,0.12111 -0.50469,0.23659 -0.76172,0.3457 -0.25703,0.10912 -0.51613,0.21184 -0.7793,0.3086 -0.26316,0.0968 -0.5299,0.18745 -0.79883,0.27148 -0.26892,0.084 -0.54012,0.16148 -0.81445,0.23242 -0.27433,0.0709 -0.55267,0.13588 -0.83203,0.19336 -0.27936,0.0575 -0.55972,0.10868 -0.84375,0.15235 -0.28403,0.0437 -0.57105,0.0799 -0.85938,0.10937 -0.28832,0.0295 -0.57882,0.0515 -0.87109,0.0664 -0.29226,0.0149 -0.58698,0.0215 -0.88281,0.0215 -0.29583,0 -0.5886,-0.007 -0.88086,-0.0215 -0.29227,-0.0149 -0.58276,-0.0369 -0.87109,-0.0664 -0.28833,-0.0295 -0.57535,-0.0657 -0.85938,-0.10937 -0.28403,-0.0437 -0.56634,-0.0949 -0.8457,-0.15235 -0.27936,-0.0575 -0.55575,-0.12241 -0.83008,-0.19336 -0.27433,-0.0709 -0.54552,-0.14838 -0.81445,-0.23242 -0.26893,-0.084 -0.53567,-0.17472 -0.79883,-0.27148 -0.26316,-0.0968 -0.52422,-0.19948 -0.78125,-0.3086 -0.25703,-0.10911 -0.50923,-0.22459 -0.75977,-0.3457 -0.25053,-0.1211 -0.49852,-0.24813 -0.74219,-0.38086 -0.24366,-0.13273 -0.48426,-0.27007 -0.7207,-0.41406 -0.23644,-0.14399 -0.46842,-0.29434 -0.69726,-0.44922 -0.22884,-0.15488 -0.45491,-0.31506 -0.67579,-0.48047 -0.22087,-0.16541 -0.43588,-0.33615 -0.64843,-0.51172 -0.21255,-0.17557 -0.42115,-0.35565 -0.625,-0.54101 -0.20386,-0.18537 -0.40482,-0.37552 -0.59961,-0.57031 -0.19479,-0.1948 -0.38495,-0.39381 -0.57031,-0.59766 -0.18537,-0.20385 -0.36545,-0.41245 -0.54102,-0.625 -0.17557,-0.21255 -0.34631,-0.42951 -0.51172,-0.65039 -0.16541,-0.22088 -0.32558,-0.44694 -0.48047,-0.67578 -0.15488,-0.22884 -0.30327,-0.46083 -0.44726,-0.69727 -0.14399,-0.23644 -0.28329,-0.47703 -0.41602,-0.7207 -0.13273,-0.24367 -0.25975,-0.4897 -0.38086,-0.74024 -0.1211,-0.25053 -0.23659,-0.50468 -0.3457,-0.76171 -0.10912,-0.25704 -0.21184,-0.51809 -0.3086,-0.78125 -0.0968,-0.26317 -0.18745,-0.52795 -0.27148,-0.79688 -0.084,-0.26893 -0.16148,-0.54208 -0.23242,-0.81641 -0.0709,-0.27432 -0.13587,-0.55071 -0.19336,-0.83007 -0.0575,-0.27937 -0.10673,-0.56168 -0.15039,-0.84571 -0.0437,-0.28403 -0.0799,-0.56909 -0.10938,-0.85742 -0.0295,-0.28833 -0.0534,-0.57883 -0.0684,-0.87109 -0.0149,-0.29227 -0.0215,-0.58698 -0.0215,-0.88282 0,-0.27499 0.005,-0.54856 0.0176,-0.82031 0.0124,-0.27174 0.032,-0.54232 0.0566,-0.81054 0.0246,-0.26823 0.0552,-0.53438 0.0918,-0.79883 0.0366,-0.26446 0.0785,-0.5267 0.12695,-0.78711 0.0484,-0.26042 0.104,-0.51927 0.16406,-0.77539 0.0601,-0.25612 0.12578,-0.51016 0.19727,-0.76172 0.0715,-0.25156 0.14775,-0.49935 0.23047,-0.7461 0.0827,-0.24674 0.17187,-0.49075 0.26562,-0.73242 0.0937,-0.24166 0.19229,-0.48242 0.29688,-0.71875 0.10459,-0.23632 0.21484,-0.46849 0.33007,-0.69922 0.11524,-0.23072 0.23565,-0.45872 0.36133,-0.68359 0.12569,-0.22487 0.25664,-0.44727 0.39258,-0.66602 0.13594,-0.21874 0.27588,-0.43411 0.42187,-0.64648 0.146,-0.21237 0.29727,-0.42122 0.45313,-0.62695 0.15586,-0.20573 0.31689,-0.4086 0.48242,-0.60742 0.16553,-0.19883 0.33672,-0.39428 0.51172,-0.58594 z"
         style="fill:#ffffff"
         id="path206" />
      <path
         d="m 558.63672,331.53906 c -0.38333,0 -0.76458,0.009 -1.14453,0.0274 -0.37995,0.0185 -0.75873,0.0456 -1.13477,0.082 -0.37604,0.0365 -0.74948,0.0828 -1.12109,0.13672 -0.37162,0.0539 -0.74076,0.11666 -1.10742,0.1875 -0.36667,0.0708 -0.7306,0.14908 -1.0918,0.23632 -0.3612,0.0872 -0.71901,0.18204 -1.07422,0.28516 -0.35521,0.10313 -0.70794,0.2155 -1.05664,0.33398 -0.3487,0.11849 -0.69349,0.24362 -1.03516,0.37696 -0.34166,0.13333 -0.67955,0.27422 -1.01367,0.42187 -0.33411,0.14766 -0.66419,0.30144 -0.99023,0.46289 -0.32604,0.16146 -0.64935,0.33112 -0.9668,0.50586 -0.31745,0.17474 -0.62917,0.35547 -0.9375,0.54297 -0.30833,0.1875 -0.61341,0.38034 -0.91211,0.58008 -0.2987,0.19974 -0.59232,0.40573 -0.88086,0.61719 -0.28854,0.21146 -0.57174,0.42969 -0.84961,0.65234 -0.27786,0.22266 -0.54974,0.45026 -0.8164,0.68359 l 4.93359,4.9336 c 0.38333,-0.31667 0.778,-0.6181 1.18555,-0.9043 0.40755,-0.2862 0.8276,-0.55742 1.25781,-0.81055 0.43021,-0.25312 0.87096,-0.48958 1.32226,-0.70703 0.45131,-0.21744 0.91394,-0.41653 1.38477,-0.5957 0.47083,-0.17917 0.95065,-0.33828 1.43945,-0.47656 0.2444,-0.0691 0.49164,-0.13298 0.74024,-0.19141 0.2486,-0.0584 0.49739,-0.11081 0.75,-0.1582 0.2526,-0.0474 0.50726,-0.089 0.76367,-0.125 0.25641,-0.036 0.51536,-0.0675 0.77539,-0.0918 0.26003,-0.0243 0.52171,-0.0423 0.78516,-0.0547 0.26344,-0.0123 0.52825,-0.0176 0.79492,-0.0176 0.26667,0 0.53245,0.005 0.79687,0.0176 0.26442,0.0124 0.52722,0.0322 0.78907,0.0566 0.26184,0.0245 0.52229,0.0535 0.78125,0.0899 0.25895,0.0363 0.5177,0.079 0.77343,0.12695 0.25573,0.0479 0.50954,0.10091 0.76172,0.16016 0.25218,0.0592 0.5017,0.125 0.75,0.19531 0.24831,0.0703 0.49418,0.14544 0.73828,0.22656 0.24411,0.0811 0.48698,0.1681 0.72657,0.25977 0.47916,0.18333 0.94909,0.38737 1.4082,0.61133 0.45911,0.22395 0.90729,0.46797 1.34375,0.73047 0.43646,0.2625 0.86029,0.54283 1.27148,0.84179 0.4112,0.29896 0.81003,0.61589 1.19336,0.94922 l 4.9336,-4.93359 c -0.26667,-0.24167 -0.53851,-0.47705 -0.81641,-0.70703 -0.2779,-0.22998 -0.56289,-0.45404 -0.85156,-0.67188 -0.28867,-0.21784 -0.58187,-0.42952 -0.88086,-0.63476 -0.29899,-0.20525 -0.60326,-0.40352 -0.91211,-0.59571 -0.30885,-0.19218 -0.62315,-0.37796 -0.94141,-0.55664 -0.31826,-0.17868 -0.63958,-0.35091 -0.96679,-0.51562 -0.32722,-0.16472 -0.66039,-0.32237 -0.9961,-0.47266 -0.33571,-0.15029 -0.67383,-0.29232 -1.01758,-0.42773 -0.34375,-0.13542 -0.69163,-0.26468 -1.04296,-0.38477 -0.35134,-0.12008 -0.70795,-0.23164 -1.06641,-0.33594 -0.35846,-0.10429 -0.71885,-0.20101 -1.08399,-0.28906 -0.36513,-0.0881 -0.73411,-0.16693 -1.10546,-0.23828 -0.37136,-0.0713 -0.74594,-0.13525 -1.12305,-0.18945 -0.37712,-0.0542 -0.75625,-0.10013 -1.13867,-0.13672 -0.38242,-0.0366 -0.76703,-0.0635 -1.1543,-0.082 -0.38727,-0.0185 -0.77825,-0.0274 -1.16992,-0.0274 z"
         style="fill:#ffffff"
         id="path204" />
      <path
         d="m 544.10352,348.07227 h 5.46679 l 3.4668,12 3.73437,-12 h 4.26563 l 3.73437,12.26562 3.46485,-12.26562 h 5.06836 l -6.53321,19.19921 h -4.26757 l -3.73243,-11.59961 -3.86718,11.59961 h -4.26758 z"
         style="fill:#ffffff"
         id="path208" />
    </g>
  </g>
</svg>
