<?xml version="1.0" encoding="UTF-8" standalone="no"?>
<!-- Created with Inkscape (http://www.inkscape.org/) -->

<svg
   version="1.1"
   id="svg1"
   width="129.60001"
   height="10.800018"
   viewBox="0 0 129.60001 10.800018"
   sodipodi:docname="MYLOGOS.svg"
   inkscape:version="1.3 (0e150ed6c4, 2023-07-21)"
   xmlns:inkscape="http://www.inkscape.org/namespaces/inkscape"
   xmlns:sodipodi="http://sodipodi.sourceforge.net/DTD/sodipodi-0.dtd"
   xmlns="http://www.w3.org/2000/svg"
   xmlns:svg="http://www.w3.org/2000/svg">
  <defs
     id="defs1">
    <clipPath
       clipPathUnits="userSpaceOnUse"
       id="clipPath32-4">
      <path
         d="M 0,244.716 H 523.316 V 0 H 0 Z"
         transform="translate(-55.103002,-189.3887)"
         id="path32-5" />
    </clipPath>
    <clipPath
       clipPathUnits="userSpaceOnUse"
       id="clipPath34-1">
      <path
         d="M 0,244.716 H 523.316 V 0 H 0 Z"
         transform="translate(-91.203002,-189.3887)"
         id="path34-3" />
    </clipPath>
    <clipPath
       clipPathUnits="userSpaceOnUse"
       id="clipPath36-8">
      <path
         d="M 0,244.716 H 523.316 V 0 H 0 Z"
         transform="translate(-63.503002,-183.2887)"
         id="path36-6" />
    </clipPath>
    <clipPath
       clipPathUnits="userSpaceOnUse"
       id="clipPath38-8">
      <path
         d="M 0,244.716 H 523.316 V 0 H 0 Z"
         transform="translate(-68.203001,-183.0887)"
         id="path38-2" />
    </clipPath>
    <clipPath
       clipPathUnits="userSpaceOnUse"
       id="clipPath40-4">
      <path
         d="M 0,244.716 H 523.316 V 0 H 0 Z"
         transform="translate(-75.903002,-187.6887)"
         id="path40-9" />
    </clipPath>
    <clipPath
       clipPathUnits="userSpaceOnUse"
       id="clipPath42-1">
      <path
         d="M 0,244.716 H 523.316 V 0 H 0 Z"
         transform="translate(-94.903,-184.3887)"
         id="path42-6" />
    </clipPath>
    <clipPath
       clipPathUnits="userSpaceOnUse"
       id="clipPath44-7">
      <path
         d="M 0,244.716 H 523.316 V 0 H 0 Z"
         transform="translate(-104.103,-185.9887)"
         id="path44-5" />
    </clipPath>
    <clipPath
       clipPathUnits="userSpaceOnUse"
       id="clipPath46-1">
      <path
         d="M 0,244.716 H 523.316 V 0 H 0 Z"
         transform="translate(-113.60301,-185.9887)"
         id="path46-7" />
    </clipPath>
    <clipPath
       clipPathUnits="userSpaceOnUse"
       id="clipPath48-1">
      <path
         d="M 0,244.716 H 523.316 V 0 H 0 Z"
         transform="translate(-121.203,-189.2887)"
         id="path48-0" />
    </clipPath>
    <clipPath
       clipPathUnits="userSpaceOnUse"
       id="clipPath50-8">
      <path
         d="M 0,244.716 H 523.316 V 0 H 0 Z"
         transform="translate(-130.70301,-183.3887)"
         id="path50-8" />
    </clipPath>
    <clipPath
       clipPathUnits="userSpaceOnUse"
       id="clipPath52-5">
      <path
         d="M 0,244.716 H 523.316 V 0 H 0 Z"
         transform="translate(-135.303,-185.9887)"
         id="path52-3" />
    </clipPath>
  </defs>
  <sodipodi:namedview
     id="namedview1"
     pagecolor="#ffffff"
     bordercolor="#000000"
     borderopacity="0.25"
     inkscape:showpageshadow="2"
     inkscape:pageopacity="0.0"
     inkscape:pagecheckerboard="0"
     inkscape:deskcolor="#d1d1d1"
     inkscape:zoom="2.7382152"
     inkscape:cx="473.301"
     inkscape:cy="215.65142"
     inkscape:window-width="1920"
     inkscape:window-height="1009"
     inkscape:window-x="-8"
     inkscape:window-y="-8"
     inkscape:window-maximized="1"
     inkscape:current-layer="layer-MC0"
     showguides="true">
    <sodipodi:guide
       position="323.61007,622.70202"
       orientation="1,0"
       id="guide462"
       inkscape:locked="false" />
    <sodipodi:guide
       position="496.24665,733.66398"
       orientation="0,-1"
       id="guide464"
       inkscape:locked="false" />
    <sodipodi:guide
       position="545.5224,697.00398"
       orientation="0,-1"
       id="guide465"
       inkscape:locked="false" />
    <sodipodi:guide
       position="533.64352,741.39732"
       orientation="1,0"
       id="guide466"
       inkscape:locked="false" />
    <sodipodi:guide
       position="536.64665,741.39732"
       orientation="0,-1"
       id="guide467"
       inkscape:locked="false" />
  </sodipodi:namedview>
  <g
     id="layer-MC0"
     inkscape:groupmode="layer"
     inkscape:label="Layer 1"
     transform="translate(-94,-431)">
    <g
       id="g2"
       transform="translate(33.995999,357.23027)">
      <path
         id="path31-7"
         d="M 0,0 -1.5,-5.1 -3,0 h -1.8 l -1.6,-5 -1.4,5 h -2.3 l 2.7,-8 h 1.7 l 1.6,4.8 1.6,-4.8 h 1.8 L 2,0 Z"
         style="fill:#ffffff;fill-opacity:1;fill-rule:nonzero;stroke:none"
         transform="matrix(1.3333333,0,0,-1.3333333,73.470667,73.769733)"
         clip-path="url(#clipPath32-4)" />
      <path
         id="path33-3"
         d="M 0,0 -1.5,-5.1 -3,0 h -1.8 l -1.6,-5 -1.4,5 h -2.3 l 2.7,-8 h 1.7 l 1.6,4.8 1.6,-4.8 h 1.8 L 2,0 Z"
         style="fill:#ffffff;fill-opacity:1;fill-rule:nonzero;stroke:none"
         transform="matrix(1.3333333,0,0,-1.3333333,121.604,73.769733)"
         clip-path="url(#clipPath34-1)" />
      <path
         id="path35-7"
         d="m 0,0 c 0,-0.2 -0.1,-0.3 -0.3,-0.3 h -4 c -0.2,0 -0.3,0.1 -0.3,0.3 v 4 c 0,0.2 0.1,0.3 0.3,0.3 h 4 C -0.1,4.3 0,4.2 0,4 Z M 0.1,6 H -4.7 C -5,6 -5.3,5.9 -5.6,5.8 l -1,-3 v -2.9 c 0,-1.1 0.8,-1.9 1.9,-1.9 H 0.1 C 1.2,-2 2,-1.2 2,-0.1 V 4.2 C 1.9,5.3 1.2,6 0.1,6"
         style="fill:#ffffff;fill-opacity:1;fill-rule:nonzero;stroke:none"
         transform="matrix(1.3333333,0,0,-1.3333333,84.670667,81.903067)"
         clip-path="url(#clipPath36-8)" />
      <path
         id="path37-4"
         d="m 0,0 v 6.3 h -2 v -8 H 5.1 V 0 Z"
         style="fill:#ffffff;fill-opacity:1;fill-rule:nonzero;stroke:none"
         transform="matrix(1.3333333,0,0,-1.3333333,90.937333,82.169733)"
         clip-path="url(#clipPath38-8)" />
      <path
         id="path39-7"
         d="M 0,0 H 5 L 4.4,1.7 h -6.3 v -8 h 2 v 3.2 h 3.5 v 1.7 H 0.1 V 0 Z"
         style="fill:#ffffff;fill-opacity:1;fill-rule:nonzero;stroke:none"
         transform="matrix(1.3333333,0,0,-1.3333333,101.204,76.0364)"
         clip-path="url(#clipPath40-4)" />
      <path
         id="path41-1"
         d="M 0,0 1.5,3 3,0 Z M 2.4,4.9 H 0.7 l -4.2,-8 h 2.1 l 0.7,1.4 h 4.4 l 0.7,-1.4 h 2.2 z"
         style="fill:#ffffff;fill-opacity:1;fill-rule:nonzero;stroke:none"
         transform="matrix(1.3333333,0,0,-1.3333333,126.53733,80.4364)"
         clip-path="url(#clipPath42-1)" />
      <path
         id="path43-4"
         d="M 0,0 V 1.6 H 3.5 C 3.9,1.6 4,1.5 4,1.1 V 0.4 C 4,0.1 3.9,-0.1 3.5,-0.1 H 0 Z m 3.6,-1.7 h 0.5 c 1,0 1.7,0.5 1.7,1.7 V 1.7 C 5.8,2.8 5.2,3.4 4.1,3.4 H -2 v -8 h 2 v 2.9 h 1.1 l 3.2,-2.9 h 2.5 z"
         style="fill:#ffffff;fill-opacity:1;fill-rule:nonzero;stroke:none"
         transform="matrix(1.3333333,0,0,-1.3333333,138.804,78.303067)"
         clip-path="url(#clipPath44-7)" />
      <path
         id="path45-8"
         d="M 0,0 V 1.6 H 3.5 C 3.9,1.6 4,1.5 4,1.1 V 0.4 C 4,0.1 3.9,-0.1 3.5,-0.1 H 0 Z m 3.6,-1.7 h 0.5 c 1,0 1.7,0.5 1.7,1.7 V 1.7 C 5.8,2.8 5.2,3.4 4.1,3.4 H -2 v -8 h 2 v 2.9 h 1.1 l 3.2,-2.9 h 2.5 z"
         style="fill:#ffffff;fill-opacity:1;fill-rule:nonzero;stroke:none"
         transform="matrix(1.3333333,0,0,-1.3333333,151.47067,78.303067)"
         clip-path="url(#clipPath46-1)" />
      <path
         id="path47-4"
         d="M 0,0 V -8 H 2 V 0 Z"
         style="fill:#ffffff;fill-opacity:1;fill-rule:nonzero;stroke:none"
         transform="matrix(1.3333333,0,0,-1.3333333,161.604,73.903067)"
         clip-path="url(#clipPath48-1)" />
      <path
         id="path49-8"
         d="m 0,0 c 0,-0.2 0,-0.3 -0.3,-0.3 h -4 c -0.2,0 -0.3,0.1 -0.3,0.3 v 4 c 0,0.2 0.1,0.3 0.3,0.3 h 4 C -0.1,4.3 0,4.2 0,4 Z M 0.1,6 H -4.7 C -5.9,6 -6.6,5.3 -6.6,4.1 v -4.2 c 0,-1.1 0.8,-1.9 1.9,-1.9 H 0.1 C 1.2,-2 2,-1.2 2,-0.1 V 4.1 C 2,5.2 1.2,6 0.1,6"
         style="fill:#ffffff;fill-opacity:1;fill-rule:nonzero;stroke:none"
         transform="matrix(1.3333333,0,0,-1.3333333,174.27067,81.769733)"
         clip-path="url(#clipPath50-8)" />
      <path
         id="path51-5"
         d="M 0,0 V 1.6 H 3.5 C 3.9,1.6 4,1.5 4,1.1 V 0.4 C 4,0.1 3.9,-0.1 3.5,-0.1 H 0 Z m 3.6,-1.7 h 0.6 c 1,0 1.7,0.5 1.7,1.7 v 1.7 c 0,1.1 -0.6,1.7 -1.7,1.7 h -6.1 v -8 h 2 v 2.9 h 1.1 l 3.2,-2.9 h 2.5 z"
         style="fill:#ffffff;fill-opacity:1;fill-rule:nonzero;stroke:none"
         transform="matrix(1.3333333,0,0,-1.3333333,180.404,78.303067)"
         clip-path="url(#clipPath52-5)" />
    </g>
  </g>
</svg>
